Coordinates
version=1
nRows=8
nColumns=36
inDegrees=yes

Units are S.I. units (second, meters, Newtons, ...)
If the header above contains a line with 'inDegrees', this indicates whether rotational values are in degrees (yes) or radians (no).

endheader
time	pelvis_tilt	pelvis_list	pelvis_rotation	pelvis_tx	pelvis_ty	pelvis_tz	hip_flexion_r	hip_adduction_r	hip_rotation_r	knee_angle_r	knee_angle_r_beta	ankle_angle_r	subtalar_angle_r	mtp_angle_r	hip_flexion_l	hip_adduction_l	hip_rotation_l	knee_angle_l	knee_angle_l_beta	ankle_angle_l	subtalar_angle_l	mtp_angle_l	lumbar_extension	lumbar_bending	lumbar_rotation	arm_flex_r	arm_add_r	arm_rot_r	elbow_flex_r	pro_sup_r	arm_flex_l	arm_add_l	arm_rot_l	elbow_flex_l	pro_sup_l
      0.98333330	     -6.75231856	      4.29255190	     -0.02624006	     -0.34677161	      1.27282214	     -0.03556440	      5.63191562	     -7.54525075	     -5.40632577	     51.34002848	      0.89605254	    -17.20082772	     -4.86539430	     -7.49999987	     38.91769119	     -3.14799433	     -3.91307573	     59.24475626	      1.03401606	    -11.98636673	    -11.77680971	     -7.49999987	     -4.76776606	     -3.96632526	      4.28376379	     86.11505298	    -38.35974779	     34.32221180	     90.86731173	     80.25908803	    122.73102972	    -54.88129602	     73.94013804	     77.50778229	     73.91505125
      0.98750000	     -6.49250790	      3.67320251	     -0.11202502	     -0.34105736	      1.27305916	     -0.03601871	      6.84663544	     -7.16673872	     -4.85563331	     52.69218367	      0.91965210	    -13.58655443	     -5.77106597	     -7.49999987	     38.57043791	     -3.69323459	     -3.07842975	     58.33079187	      1.01806437	    -10.92654904	     -9.65808668	     -7.49999987	     -5.71756577	     -3.57171426	      4.24401270	     84.71698752	    -40.79707422	     32.79581559	     93.86647476	     80.83554858	    125.74579648	    -56.23252366	     77.37883240	     78.75652975	     74.49031350
      0.99166670	     -6.64158394	      3.66505385	     -0.43062256	     -0.33623937	      1.27128428	     -0.03454825	      7.87669097	     -6.89087344	     -4.21757479	     53.95846119	      0.94175281	    -12.12797226	     -4.86422912	     -7.49999987	     38.95200056	     -3.76523132	     -2.94831089	     57.47017488	      1.00304377	    -12.07761127	     -9.72004709	     -7.49999987	     -5.46077917	     -3.27587088	      3.60224911	     83.18325989	    -41.25262483	     31.60169966	     95.12225747	     81.22666400	    126.25780173	    -58.86718037	     78.15761362	     79.37865193	     74.83451911
      0.99583330	     -6.42893054	      3.57429890	     -0.75568496	     -0.33050289	      1.27476975	     -0.03535420	      8.40944077	     -6.71565359	     -4.08763149	     54.67012932	      0.95417376	    -11.84517821	     -5.33243064	     -7.49999987	     38.35136893	     -3.78451955	     -1.93170334	     56.03652245	      0.97802182	    -11.57330670	     -7.93615685	     -7.49999987	     -5.60070603	     -2.87778067	      3.46583602	     82.21389286	    -41.74750711	     31.21853763	     95.73101441	     81.36838534	    126.14015622	    -60.70782252	     78.82344141	     79.14741322	     74.97358438
      1.00000000	     -6.20057856	      3.12119738	     -0.82461300	     -0.32558166	      1.27283089	     -0.03672114	      9.34806041	     -6.53847802	     -3.85219255	     56.08263540	      0.97882664	    -10.19777958	     -4.75478176	     -7.49999987	     38.37303070	     -4.03436783	     -1.00492743	     55.29813639	      0.96513455	    -11.47922799	     -7.20586556	     -7.49999987	     -6.11767081	     -2.19893410	      2.74546053	     80.90666100	    -42.67871868	     29.78744814	     97.48792418	     80.03840686	    127.91908920	    -63.34803762	     80.64113365	     80.56676109	     74.16434173
      1.00416670	     -6.11237673	      2.95685770	     -1.12149093	     -0.32123274	      1.27550942	     -0.03652263	      9.77249319	     -6.25821301	     -3.81259586	     55.95289798	      0.97656230	     -8.10482435	     -5.91776792	     -7.49999987	     38.22489545	     -4.17510858	     -0.92008959	     54.18255124	      0.94566392	    -11.93840950	     -6.83283107	     -7.49999987	     -6.30342990	     -1.93134697	      2.78012221	     80.18539865	    -43.32004103	     29.79090352	     97.37308248	     80.10462128	    127.89174747	    -64.64210679	     80.89576724	     80.09097863	     74.21387883
      1.00833330	     -6.14355041	      2.98305371	     -1.25630360	     -0.31687110	      1.26958375	     -0.03659896	     10.67479254	     -6.13555056	     -3.83467678	     57.27174058	      0.99958044	     -6.52431787	     -6.31767320	     -7.49999987	     38.45968466	     -4.28709292	     -1.46824748	     53.05751406	      0.92602831	    -12.77652512	     -7.51698846	     -7.49999987	     -6.43191416	     -1.81417981	      2.30577808	     79.73139776	    -43.23325629	     29.73088252	     97.78993451	     78.48359443	    129.05467680	    -66.19554168	     81.73889197	     79.59432669	     73.05777915
      1.01250000	     -6.17650573	      2.82144521	     -1.37663649	     -0.31178837	      1.26985246	     -0.03548414	     11.52495252	     -5.89235096	     -3.83718396	     58.24933864	      1.01664275	     -4.84885813	     -6.84930335	     -7.49999987	     38.68904165	     -4.63722776	     -1.95060123	     52.20119120	      0.91108266	    -13.02769882	     -8.15308133	     -7.49999987	     -6.57549738	     -1.60611148	      2.35742664	     79.41328021	    -43.50307957	     29.97193676	     98.03940134	     78.78012339	    129.66667192	    -67.12144870	     82.37462340	     79.11572356	     73.27658737
